Coordinates
version=1
nRows=5
nColumns=63
inDegrees=yes

Units are S.I. units (second, meters, Newtons, ...)
If the header above contains a line with 'inDegrees', this indicates whether rotational values are in degrees (yes) or radians (no).

endheader
time	pelvis_tilt	pelvis_list	pelvis_rotation	pelvis_tx	pelvis_ty	pelvis_tz	hip_flexion_r	hip_adduction_r	hip_rotation_r	knee_angle_r	knee_angle_r_beta	ankle_angle_r	subtalar_angle_r	mtp_angle_r	hip_flexion_l	hip_adduction_l	hip_rotation_l	knee_angle_l	knee_angle_l_beta	ankle_angle_l	subtalar_angle_l	mtp_angle_l	L5_S1_Flex_Ext	L5_S1_Lat_Bending	L5_S1_axial_rotation	L4_L5_Flex_Ext	L4_L5_Lat_Bending	L4_L5_axial_rotation	L3_L4_Flex_Ext	L3_L4_Lat_Bending	L3_L4_axial_rotation	L2_L3_Flex_Ext	L2_L3_Lat_Bending	L2_L3_axial_rotation	L1_L2_Flex_Ext	L1_L2_Lat_Bending	L1_L2_axial_rotation	L1_T12_Flex_Ext	L1_T12_Lat_Bending	L1_T12_axial_rotation	Abs_r3	Abs_r2	Abs_r1	Abs_t1	Abs_t2	neck_flexion	neck_bending	neck_rotation	arm_flex_r	arm_add_r	arm_rot_r	elbow_flex_r	pro_sup_r	wrist_flex_r	wrist_dev_r	arm_flex_l	arm_add_l	arm_rot_l	elbow_flex_l	pro_sup_l	wrist_flex_l	wrist_dev_l
      1.57627119	     -5.62244350	     -1.57227838	     92.19534237	      0.24418005	      0.71705316	      0.71778661	      2.20504782	     -1.87221476	      4.31920907	      1.82435952	      0.03184108	     25.33294511	    -13.24632753	      0.00000000	      3.33082002	      2.40626288	      4.61788909	      1.53187371	      0.02673624	     28.61830715	      2.57506563	      0.00000000	      0.09062497	     -0.15133113	     -0.10338629	      0.16829964	     -0.20127040	     -0.10984793	      0.14888777	     -0.36794650	     -0.10984793	      0.10357528	     -0.36794650	     -0.09046300	      0.08415435	     -0.30859443	     -0.08400136	      0.05178311	     -0.23441192	     -0.07753972	      0.64732513	     -1.71188797	     -0.57500351	      0.00000000	      0.00000000	     21.35805716	     -0.54201699	     -4.18058096	     11.50734640	    -18.06101603	     50.80175864	     21.65180345	     83.22711358	    -13.84694402	     -2.40810963	      4.41317283	    -17.18820741	     26.67102246	     25.77016782	     85.64241462	    -16.43887195	      1.25932616
      1.59322034	     -5.97781768	     -1.46497478	     91.79761737	      0.24565029	      0.71637540	      0.71610852	      1.94578922	     -2.17377017	      4.42888928	      1.82366653	      0.03182899	     25.36672013	    -13.29383256	      0.00000000	      2.94802200	      2.68287874	      4.49920487	      1.27925527	      0.02232722	     28.05820604	      2.08171423	      0.00000000	      0.09187775	     -0.20259409	      0.06564014	      0.17062617	     -0.26945014	      0.06974265	      0.15094595	     -0.49258727	      0.06974265	      0.10500708	     -0.49258727	      0.05743512	      0.08531768	     -0.41312987	      0.05333261	      0.05249895	     -0.31381824	      0.04923010	      0.65627356	     -2.29178485	      0.36507076	      0.00000000	      0.00000000	     21.53040115	     -0.64045779	     -4.72912194	     14.97108831	    -11.98592348	    151.21488318	      1.27398813	      5.25988611	    -12.69238178	     -9.63114414	      5.76628311	    -17.55838028	     34.11875808	     21.48198298	     82.31883365	    -17.16678820	      1.75001673
      1.61016949	     -5.77726433	     -1.25853337	     91.27423570	      0.24573442	      0.71588214	      0.71467473	      1.62715114	     -1.98004380	      4.62120214	      1.80531682	      0.03150872	     25.09989915	    -13.42808421	      0.00000000	      2.50232789	      2.46526227	      4.11478471	      1.11334610	      0.01943156	     27.63270781	      1.53032595	      0.00000000	      0.08677674	     -0.15527686	      0.16844095	      0.16115309	     -0.20651822	      0.17896851	      0.14256551	     -0.37754015	      0.17896851	      0.09917714	     -0.37754015	      0.14738583	      0.08058088	     -0.31664057	      0.13685827	      0.04958423	     -0.24052385	      0.12633071	      0.61983760	     -1.75652287	      0.93681802	      0.00000000	      0.00000000	     21.61497979	     -1.18913006	     -4.11404373	     14.10651143	    -12.13018894	    151.00944880	      1.54909221	      5.86128748	    -13.11156393	     -8.46397200	      5.80093267	    -16.97355711	     35.60951213	     19.22169771	     81.86991684	    -16.23243593	      3.25539401
      1.62711864	     -5.29935845	     -1.18089092	     90.85961021	      0.24495201	      0.71646948	      0.71340672	      1.47674065	     -1.54773765	      4.63320211	      1.83129692	      0.03196216	     24.40399924	    -13.64715141	      0.00000000	      2.20438120	      2.04209527	      4.44131570	      0.98430501	      0.01717936	     26.65045503	     -0.26229879	      0.00000000	      0.10359808	     -0.06090825	      0.21612438	      0.19239199	     -0.08100797	      0.22963215	      0.17020128	     -0.14809231	      0.22963215	      0.11840224	     -0.14809231	      0.18910883	      0.09620117	     -0.12420410	      0.17560106	      0.05919594	     -0.09434687	      0.16209328	      0.73999069	     -0.68900626	      1.20201895	      0.00000000	      0.00000000	     21.47718947	     -1.92865528	     -3.12465357	     13.67230364	    -12.36284556	    150.36487146	      1.70277924	      7.19201460	    -13.33039873	     -8.20034229	     11.22232375	    -12.95110859	    133.43023677	      1.81819031	      5.94860984	     -9.93751267	     -1.76036551
      1.64406780	     -5.14927258	     -1.05658261	     90.67363369	      0.24526443	      0.71683585	      0.71255709	      1.27990129	     -1.37855243	      4.39809716	      1.84274395	      0.03216195	     23.96774222	    -13.66354427	      0.00000000	      1.93404799	      1.86882805	      3.84102287	      0.94815963	      0.01654851	     25.91190232	     -0.51865205	      0.00000000	      0.10201602	     -0.03697509	      0.23293868	      0.18945395	     -0.04917686	      0.24749734	      0.16760212	     -0.08990122	      0.24749734	      0.11659411	     -0.08990122	      0.20382134	      0.09473208	     -0.07539959	      0.18926268	      0.05829195	     -0.05727441	      0.17470401	      0.72869023	     -0.41826956	      1.29553504	      0.00000000	      0.00000000	     21.38362088	     -2.32780678	     -3.13723790	     13.57011837	    -12.08939728	    150.33990378	      1.75054155	      7.02741023	    -12.59811247	     -7.90154520	     10.99725327	    -12.79547317	    134.12370758	      2.14328537	      6.84838394	     -9.14831895	     -0.93465879
